<svg viewBox="0 0 100 100" fill="none" xmlns="http://www.w3.org/2000/svg">
  <defs>
    <linearGradient id="brandLogoGrad" x1="0%" y1="0%" x2="100%" y2="100%">
      <stop offset="0%" stop-color="#00D2FF" />
      <stop offset="45%" stop-color="#0284C7" />
      <stop offset="100%" stop-color="#1E40AF" />
    </linearGradient>
    <linearGradient id="arrowGrad" x1="0%" y1="100%" x2="100%" y2="0%">
      <stop offset="0%" stop-color="#FFFFFF" />
      <stop offset="100%" stop-color="#BAE6FD" />
    </linearGradient>
  </defs>
  <path
    d="M 16 10 L 52 10 C 78 10 94 28 94 50 C 94 72 78 90 52 90 L 16 90 Z M 32 26 L 32 74 L 50 74 C 66 74 76 64 76 50 C 76 36 66 26 50 26 Z"
    fill="url(#brandLogoGrad)"
    fill-rule="evenodd"
  />
  <g>
    <path
      d="M 16 88 L 44 60 L 40 48 L 64 36 L 76 18 L 60 22 L 76 18 L 72 34 Z"
      fill="url(#arrowGrad)"
      stroke="#0284C7"
      stroke-width="1.5"
    />
    <polygon
      points="76,16 60,23 66,29 52,43 57,48 71,34 77,40"
      fill="#FFFFFF"
      stroke="#0284C7"
      stroke-width="1"
    />
  </g>
</svg>
